<?xml version="1.0" encoding="utf-8"?>
<!-- Generator: Adobe Illustrator 26.3.1, SVG Export Plug-In . SVG Version: 6.00 Build 0)  -->
<svg version="1.1" id="Layer_1" xmlns="http://www.w3.org/2000/svg" xmlns:xlink="http://www.w3.org/1999/xlink" x="0px" y="0px"
	 viewBox="0 0 667.9 94.9" style="enable-background:new 0 0 667.9 94.9;" xml:space="preserve">
<style type="text/css">
	.st0{fill:#007DBA;}
	.st1{fill:#FFFFFF;}
</style>
<g>
	<polygon class="st0" points="50.6,94.9 0,94.9 2,84.2 52.6,84.2 	"/>
	<polygon class="st0" points="63,30 50.6,94.9 40.1,94.9 52.5,30 	"/>
	<polygon class="st0" points="0,94.9 9.8,43.8 20.6,43.8 10.8,94.9 	"/>
	<polygon class="st0" points="10.1,41.8 60.8,41.8 58.7,52.4 8.1,52.4 	"/>
	<polygon class="st0" points="68.9,0 63.8,26.7 53.1,26.7 58.2,0 	"/>
	<polygon class="st0" points="109.1,11.2 58.5,11.2 60.7,0 111.3,0 	"/>
	<polygon class="st0" points="90.4,52.4 100.5,0.1 111.2,0.1 101.2,52.4 	"/>
	<polygon class="st0" points="64,41.8 102.9,41.8 100.8,52.4 62,52.4 	"/>
</g>
<g>
	<path class="st1" d="M181.1,61c2.4-3.9,4-8.1,4.8-12.5c0.8-4.3,0.7-8.5-0.2-12.3c-0.9-3.8-2.6-7.1-4.9-9.9c-2.3-2.8-5.3-5-8.7-6.7
		c-3.5-1.6-7.5-2.5-11.9-2.5h-28.6l-11.7,63.6h27.7c4.4,0,8.8-0.8,13-2.5c4.2-1.7,8.1-4,11.6-6.9C175.7,68.4,178.7,64.9,181.1,61z
		 M171.8,49.4c-0.5,2.7-1.5,5.3-2.9,7.7c-1.4,2.4-3.2,4.4-5.3,6.2c-2.1,1.8-4.4,3.1-7,4.1c-2.6,1-5.3,1.5-8.1,1.5h-13.4l7.3-39.9
		H155c2.8,0,5.4,0.5,7.7,1.6c2.3,1.1,4.2,2.5,5.8,4.4c1.5,1.9,2.6,4.1,3.2,6.6C172.2,44,172.3,46.6,171.8,49.4z"/>
	<path class="st1" d="M229,71.3l1.8,9.4h14.4l-11.9-63.6h-12.7l-35.2,63.6h13.8l5.3-9.4H229z M224.2,31.2l3.3,29h-17.4L224.2,31.2z"
		/>
	<polygon class="st1" points="309.2,29.2 309.3,29.1 311.5,17.2 257.8,17.2 255.6,29.2 275.6,29.2 266.1,80.7 279.8,80.7 
		289.3,29.2 	"/>
	<path class="st1" d="M346.3,71.3l1.8,9.4h14.4l-11.9-63.6h-12.7l-35.2,63.6h13.8l5.3-9.4H346.3z M341.5,31.2l3.3,29h-17.4
		L341.5,31.2z"/>
	<path class="st1" d="M406.7,59.5c3,0,6-0.6,9-1.7c3-1.2,5.8-2.8,8.3-4.8c2.5-2,4.7-4.4,6.5-7.2c1.7-2.7,2.9-5.6,3.5-8.6
		c0.5-2.9,0.4-5.7-0.3-8.1c-0.7-2.4-2-4.5-3.6-6.2c-1.7-1.7-3.8-3.1-6.3-4.1c-2.5-1-5.3-1.5-8.3-1.5h-28.8l-11.7,63.6h13.4l3.9-21.2
		H406.7z M398.5,27.6h12.7c1.4,0,2.7,0.3,3.9,0.8c1.2,0.5,2.2,1.3,3,2.2c0.8,0.9,1.4,2,1.7,3.2c0.4,1.2,0.4,2.6,0.1,4
		c-0.2,1.4-0.8,2.6-1.5,3.8c-0.7,1.1-1.6,2.1-2.6,2.9c-1,0.8-2.2,1.5-3.4,2c-1.3,0.5-2.6,0.7-4,0.7H395L398.5,27.6z"/>
	<path class="st1" d="M487.3,52.9c2.9-1.8,5.4-4.1,7.3-6.8c1.9-2.6,3.2-5.5,3.7-8.5c0.3-1.8,0.4-3.8,0.2-5.8
		c-0.2-1.9-0.6-3.7-1.3-5.1c-0.6-1.2-1.4-2.3-2.4-3.5c-1-1.1-2.1-2.2-3.4-3.1c-1.2-0.9-2.5-1.6-3.9-2.2c-1.3-0.5-2.6-0.8-4-0.8
		h-32.3l-11.7,63.6h13.9l3.8-21.2h15.2l8,21.2H496l-10.3-26.8L487.3,52.9z M484.2,37.8c-0.2,1.4-0.8,2.6-1.5,3.8
		c-0.7,1.1-1.6,2.1-2.6,2.9c-1,0.8-2.2,1.5-3.4,2c-1.3,0.5-2.6,0.7-4,0.7h-13.6l3.6-19.5h12.7c1.4,0,2.7,0.3,3.9,0.8
		c1.2,0.5,2.2,1.3,3,2.2c0.8,0.9,1.4,2,1.7,3.2C484.4,35,484.4,36.4,484.2,37.8z"/>
	<polygon class="st1" points="520.1,17.2 508.4,80.7 521.9,80.7 533.6,17.2 	"/>
	<path class="st1" d="M583,78.6c2.9-1.5,5.5-3.6,7.6-6.2c2.1-2.5,3.5-5.9,4.2-9.9c0.3-1.4,0.4-2.8,0.5-4.3c0-1.3-0.1-2.5-0.4-3.6
		c-0.4-1.5-1.1-2.8-2-3.8c-1-1.1-2.2-2.1-3.6-3c-1.5-0.9-3.1-1.6-4.8-2.3c-1.9-0.7-3.7-1.2-5.6-1.8c-1.9-0.5-3.7-1-5.5-1.3
		c-1.8-0.4-3.6-0.8-5.1-1.2c-1.7-0.5-3.1-1-4.2-1.5c-1.5-0.8-2.5-1.7-3.1-2.9c-0.5-1.1-0.6-2.3-0.3-3.5c0.3-1.6,0.9-2.9,1.9-3.9
		c0.9-0.9,2-1.6,3.2-2.1c1.1-0.4,2.3-0.7,3.5-0.8c1-0.1,2.1-0.1,3-0.1c4,0,7.6,0.6,10.9,1.7c2.5,0.9,5.1,2,7.7,3.3
		c1.4-1.9,2.9-3.8,4.3-5.7c1.3-1.7,2.7-3.5,4-5.2c-2.7-1.6-5.6-2.8-8.7-3.6c-6.4-1.7-13.4-2-20.5-1c-2.6,0.4-5.3,1.1-7.8,2
		c-2.5,0.9-4.8,2.2-7,3.8c-2.1,1.6-4.1,3.6-5.7,6.1c-0.8,1.2-1.5,2.5-2,3.8c-0.5,1.4-0.9,2.7-1.2,4c-0.7,3.8-0.6,6.7,0.2,8.9
		c0.9,2.1,2.2,3.8,4,5c1,0.7,2,1.3,3.2,1.8c1.3,0.5,2.7,1,4,1.5c1.4,0.5,2.8,0.8,4.3,1.2c1.6,0.4,3.2,0.7,4.9,1.2
		c1.2,0.3,2.4,0.5,3.6,0.8c1.4,0.3,2.8,0.7,4.1,1.2c0.5,0.2,1.2,0.5,1.8,0.8c0.7,0.4,1.3,0.8,1.9,1.3c0.7,0.6,1.3,1.3,1.7,2.1
		c0.5,1,0.7,2.1,0.4,3.3c-0.3,1.9-1.1,3.3-2.2,4.4c-1,1-2.2,1.7-3.5,2.2c-1.2,0.4-2.5,0.7-3.9,0.8c-1.2,0.1-2.4,0.1-3.4,0.1
		c-3.8,0-7.3-0.5-10.6-1.4c-3.2-0.9-6.4-2.2-9.4-3.9l-0.1-0.1c-0.3,0.5-0.8,1-1.2,1.6c-1.2,1.5-2.4,3-3.7,4.7
		c-0.6,0.8-1.2,1.6-1.8,2.4c-0.6,0.8-1.1,1.5-1.6,2.1l-0.1,0.1c3.3,1.6,6.9,2.9,10.6,3.8c7.4,1.9,15.4,2,23.6,0.6
		C576.7,81.2,580,80.1,583,78.6z"/>
	<polygon class="st1" points="618.1,17.2 606.4,80.7 656.1,80.7 658.2,69.3 621.4,69.3 624.1,54.7 661,54.7 663.2,43.3 626.2,43.2 
		628.9,28.6 665.6,28.6 667.7,17.2 	"/>
</g>
</svg>
